<svg xmlns="http://www.w3.org/2000/svg" width="341.333" height="341.333" preserveAspectRatio="xMidYMid meet" version="1.0" viewBox="0 0 256 256"><metadata>Created by potrace 1.14, written by Peter Selinger 2001-2017</metadata><g fill="#000" stroke="none"><path d="M1480 2460 c0 -10 -12 -27 -26 -37 -40 -27 -144 -130 -144 -142 0 -6 -14 -26 -31 -46 -24 -27 -39 -35 -66 -35 -29 0 -44 9 -93 60 -40 41 -69 62 -92 67 -41 7 -64 19 -89 44 -14 14 -33 19 -75 19 -64 0 -80 -10 -184 -115 -91 -91 -102 -105 -116 -150 -8 -27 -34 -64 -73 -106 -46 -48 -63 -74 -68 -102 -3 -24 -16 -46 -33 -61 -15 -12 -35 -36 -43 -52 -9 -16 -25 -37 -36 -46 -12 -10 -21 -29 -21 -44 0 -24 -18 -48 -106 -137 -20 -20 -33 -46 -37 -72 -5 -28 -17 -49 -42 -72 -19 -17 -35 -38 -35 -46 0 -18 -32 -47 -53 -47 -15 0 -17 -13 -17 -98 l0 -98 30 -11 c20 -8 34 -23 46 -52 15 -37 20 -41 51 -41 44 0 72 -15 83 -46 6 -14 23 -30 39 -35 16 -6 36 -21 45 -34 10 -16 29 -25 61 -30 37 -5 50 -12 63 -36 10 -16 20 -29 24 -29 7 0 82 -61 128 -104 14 -13 43 -29 64 -35 22 -6 51 -22 65 -35 14 -14 42 -41 62 -61 22 -22 45 -35 62 -35 37 0 76 -20 83 -42 3 -10 18 -26 32 -35 15 -9 38 -26 52 -38 14 -12 43 -27 65 -33 25 -7 50 -23 63 -42 13 -16 28 -30 35 -30 7 0 26 -13 41 -29 17 -18 42 -31 67 -35 29 -5 42 -13 53 -35 9 -16 29 -34 48 -40 18 -6 41 -20 53 -31 11 -10 38 -25 60 -32 29 -9 44 -22 55 -45 l15 -33 158 0 157 0 0 28 c0 18 10 38 29 56 16 15 35 48 41 73 9 30 21 48 36 55 13 6 26 20 30 30 3 11 18 34 34 51 15 18 31 47 35 65 6 30 29 59 110 142 14 14 25 33 25 41 0 33 22 78 41 84 11 4 26 21 35 38 9 18 24 41 34 52 10 11 23 37 29 57 7 21 24 47 39 58 14 12 35 36 47 55 11 18 28 44 38 59 11 15 21 51 24 88 6 66 24 98 55 98 10 0 18 5 18 10 0 6 -9 10 -20 10 -24 0 -46 33 -55 82 -10 53 -96 138 -140 138 -48 0 -67 20 -72 77 -5 45 -2 53 25 84 16 19 35 53 41 76 6 23 22 55 36 71 40 48 42 76 6 108 -17 15 -31 34 -31 41 0 8 -13 22 -30 31 -16 9 -30 20 -30 24 0 9 -108 118 -117 118 -4 0 -21 16 -39 35 -26 29 -39 35 -72 35 -33 0 -45 5 -65 31 -18 23 -36 33 -73 40 -27 5 -51 14 -52 19 -5 15 -112 120 -122 120 -5 0 -22 11 -38 25 -16 13 -53 32 -83 42 -46 15 -54 22 -57 46 -3 25 -7 27 -48 27 -37 0 -44 -3 -44 -20z m119 -139 c26 -27 36 -33 93 -45 17 -4 34 -18 43 -36 9 -17 23 -30 31 -30 9 0 28 -13 43 -29 15 -16 47 -35 72 -42 24 -7 60 -28 79 -47 19 -18 46 -44 60 -58 17 -15 37 -24 58 -24 27 0 46 -14 122 -90 84 -84 90 -92 90 -131 0 -34 -6 -47 -34 -73 -28 -25 -35 -40 -38 -76 -2 -35 -8 -47 -29 -59 -39 -22 -96 -7 -117 30 -9 16 -26 32 -37 35 -11 3 -29 17 -41 30 -12 15 -35 27 -60 31 -26 4 -51 17 -76 42 -68 68 -166 138 -240 172 -20 10 -41 27 -48 38 -7 14 -25 23 -51 27 -28 5 -53 19 -79 43 -20 20 -48 43 -60 52 -22 15 -23 18 -12 87 10 68 13 75 64 127 48 49 57 54 96 55 36 0 49 -5 71 -29z m-710 -80 c15 -10 7 -31 -12 -31 -7 0 -19 5 -27 10 -13 9 -13 11 0 20 18 12 21 12 39 1z m-681 -975 c4 -36 -11 -54 -33 -36 -15 13 -20 51 -8 64 15 15 38 0 41 -28z m1079 28 c27 -7 63 -62 63 -96 0 -28 -47 -78 -74 -78 -10 0 -33 15 -52 34 -71 71 -28 164 63 140z m1103 -85 c0 -10 -7 -19 -15 -19 -15 0 -21 31 -9 43 11 10 24 -3 24 -24z m-350 -559 c0 -5 -5 -10 -11 -10 -5 0 -7 5 -4 10 3 6 8 10 11 10 2 0 4 -4 4 -10z" transform="translate(0.000000,256.000000) scale(0.100000,-0.100000)"/></g></svg>